<?xml version="1.0" standalone="no"?>
<!DOCTYPE svg PUBLIC "-//W3C//DTD SVG 20010904//EN"
 "http://www.w3.org/TR/2001/REC-SVG-20010904/DTD/svg10.dtd">
<svg version="1.0" xmlns="http://www.w3.org/2000/svg"
 width="500.000000pt" height="500.000000pt" viewBox="0 0 500.000000 500.000000"
 preserveAspectRatio="xMidYMid meet">
<metadata>
Created by potrace 1.15, written by Peter Selinger 2001-2017
</metadata>
<g transform="translate(0.000000,500.000000) scale(0.100000,-0.100000)"
fill="#000000" stroke="none">
<path d="M2830 2505 l0 -655 765 0 765 0 0 655 0 655 -765 0 -765 0 0 -655z
m1113 358 l48 -22 -17 -33 c-9 -18 -17 -34 -18 -35 -1 -1 -26 7 -56 17 -137
48 -260 2 -260 -96 0 -42 54 -84 162 -127 52 -21 116 -51 142 -68 87 -55 109
-163 51 -250 -58 -89 -242 -126 -395 -80 -39 12 -70 25 -70 28 0 19 25 73 35
73 5 0 39 -9 73 -20 154 -48 292 -2 292 98 0 53 -28 77 -161 132 -180 75 -220
115 -220 216 0 87 52 157 137 184 54 17 204 7 257 -17z m-535 -280 c-3 -243
-6 -294 -20 -324 -21 -45 -65 -83 -114 -99 -33 -11 -177 -11 -187 0 -2 3 -2
22 0 42 l5 36 53 -5 c70 -7 121 11 146 51 17 29 19 53 19 309 l0 277 51 0 50
0 -3 -287z"/>
<path d="M1040 2516 l0 -356 144 0 c79 0 168 5 197 10 122 23 218 100 261 209
17 44 22 77 22 157 1 93 -1 105 -29 159 -20 40 -46 71 -79 96 -81 61 -127 72
-333 77 l-183 4 0 -356z m397 206 c64 -34 95 -87 101 -175 11 -185 -76 -267
-285 -267 l-83 0 0 236 0 236 113 -4 c91 -3 120 -8 154 -26z"/>
<path d="M1852 2654 c-50 -12 -62 -19 -58 -32 3 -9 8 -30 12 -45 5 -21 11 -27
23 -22 38 15 116 24 152 19 46 -8 79 -43 79 -84 l0 -28 -89 -4 c-108 -5 -173
-33 -202 -88 -37 -68 -15 -152 50 -192 48 -30 168 -32 220 -4 31 16 35 17 43
2 6 -11 23 -16 58 -16 l50 0 0 154 c0 234 -16 289 -94 329 -51 27 -161 31
-244 11z m206 -331 l-3 -57 -44 -13 c-51 -15 -115 -3 -125 23 -11 28 -6 61 9
74 8 7 41 16 73 20 101 13 93 17 90 -47z"/>
<path d="M2490 2656 c-19 -7 -43 -17 -52 -21 -12 -5 -20 -2 -24 9 -4 11 -19
16 -50 16 l-44 0 0 -250 0 -250 60 0 60 0 0 190 c0 183 1 190 21 201 22 11
112 8 155 -6 20 -6 23 -2 33 46 8 35 8 56 1 63 -16 16 -121 18 -160 2z"/>
</g>
</svg>
