<?xml version="1.0" standalone="no"?>
<!DOCTYPE svg PUBLIC "-//W3C//DTD SVG 20010904//EN"
 "http://www.w3.org/TR/2001/REC-SVG-20010904/DTD/svg10.dtd">
<svg version="1.0" xmlns="http://www.w3.org/2000/svg"
 width="200.000000pt" height="200.000000pt" viewBox="0 0 200.000000 200.000000"
 preserveAspectRatio="xMidYMid meet">

<g transform="translate(0.000000,200.000000) scale(0.100000,-0.100000)"
fill="#000000" stroke="none">
<path d="M1194 1886 c-194 -75 -446 -273 -532 -418 -9 -15 -19 -28 -23 -28 -3
0 -18 37 -33 83 l-26 82 5 -57 c4 -31 17 -98 30 -150 24 -96 26 -126 4 -64 -7
20 -16 36 -20 36 -3 0 -22 -26 -41 -57 -66 -107 -125 -237 -169 -368 -42 -127
-43 -133 -44 -265 0 -92 4 -141 13 -155 10 -17 11 -11 6 41 -3 33 -1 93 5 133
20 127 154 427 245 547 l31 41 51 -106 c30 -62 71 -128 98 -158 l46 -51 0 -83
c1 -146 70 -495 129 -644 l19 -50 114 0 c104 1 117 3 168 29 30 16 67 37 83
48 l27 20 -49 46 c-63 60 -76 103 -76 247 0 88 5 123 23 175 33 96 35 99 69
74 41 -30 170 -227 181 -277 l10 -42 1 35 c3 116 -38 241 -128 388 -31 50 -66
111 -77 134 -33 64 -47 70 -102 46 -59 -27 -245 -32 -302 -9 -68 28 -174 126
-232 215 -36 56 -55 105 -22 58 21 -30 27 -28 48 16 55 115 178 245 333 349
174 117 313 159 394 118 47 -24 24 -2 -26 24 -55 29 -150 28 -231 -3z"/>
<path d="M543 1783 c-29 -6 -36 -29 -17 -61 10 -17 13 -20 10 -7 -5 16 -1 14
17 -7 27 -33 38 -35 62 -8 13 14 16 28 11 55 -7 37 -19 41 -83 28z"/>
<path d="M992 1413 c-39 -16 -56 -137 -28 -204 20 -49 59 -82 85 -74 12 3 33
26 47 51 21 36 27 59 28 115 1 66 -1 72 -27 95 -27 23 -72 30 -105 17z"/>
<path d="M1488 427 c-37 -31 -43 -87 -8 -87 23 0 47 33 56 78 8 39 -8 42 -48
9z"/>
<path d="M1567 345 c-92 -110 -307 -174 -584 -174 -118 0 -229 -32 -328 -95
-71 -46 -77 -61 -13 -31 98 44 204 59 386 52 143 -5 173 -3 240 14 144 38 235
108 327 252 26 40 14 33 -28 -18z"/>
</g>
</svg>
