<?xml version="1.0" encoding="UTF-8" standalone="no"?>
<svg
   xmlns:dc="http://purl.org/dc/elements/1.1/"
   xmlns:cc="http://creativecommons.org/ns#"
   xmlns:rdf="http://www.w3.org/1999/02/22-rdf-syntax-ns#"
   xmlns:svg="http://www.w3.org/2000/svg"
   xmlns="http://www.w3.org/2000/svg"
   xmlns:sodipodi="http://sodipodi.sourceforge.net/DTD/sodipodi-0.dtd"
   xmlns:inkscape="http://www.inkscape.org/namespaces/inkscape"
   version="1"
   width="933.333"
   height="933.333"
   viewBox="0 0 700.000000 700.000000"
   id="svg4"
   sodipodi:docname="safari-pinned-tab-1.svg"
   inkscape:version="0.92.1 r15371">
  <metadata
     id="metadata10">
    <rdf:RDF>
      <cc:Work
         rdf:about="">
        <dc:format>image/svg+xml</dc:format>
        <dc:type
           rdf:resource="http://purl.org/dc/dcmitype/StillImage" />
        <dc:title></dc:title>
      </cc:Work>
    </rdf:RDF>
  </metadata>
  <defs
     id="defs8" />
  <sodipodi:namedview
     pagecolor="#ffffff"
     bordercolor="#666666"
     borderopacity="1"
     objecttolerance="10"
     gridtolerance="10"
     guidetolerance="10"
     inkscape:pageopacity="0"
     inkscape:pageshadow="2"
     inkscape:window-width="1366"
     inkscape:window-height="718"
     id="namedview6"
     showgrid="false"
     inkscape:zoom="0.25285723"
     inkscape:cx="466.6665"
     inkscape:cy="466.6665"
     inkscape:window-x="0"
     inkscape:window-y="29"
     inkscape:window-maximized="1"
     inkscape:current-layer="svg4" />
  <g
     id="g5104"
     transform="matrix(0.10000004,0,0,-0.10000004,79.999892,600.5001)"
     style="fill:#000000;stroke:none">
    <path
       id="path5096"
       d="m 2830,2505 v -655 h 765 765 v 655 655 h -765 -765 z m 1113,358 48,-22 -17,-33 c -9,-18 -17,-34 -18,-35 -1,-1 -26,7 -56,17 -137,48 -260,2 -260,-96 0,-42 54,-84 162,-127 52,-21 116,-51 142,-68 87,-55 109,-163 51,-250 -58,-89 -242,-126 -395,-80 -39,12 -70,25 -70,28 0,19 25,73 35,73 5,0 39,-9 73,-20 154,-48 292,-2 292,98 0,53 -28,77 -161,132 -180,75 -220,115 -220,216 0,87 52,157 137,184 54,17 204,7 257,-17 z m -535,-280 c -3,-243 -6,-294 -20,-324 -21,-45 -65,-83 -114,-99 -33,-11 -177,-11 -187,0 -2,3 -2,22 0,42 l 5,36 53,-5 c 70,-7 121,11 146,51 17,29 19,53 19,309 v 277 h 51 50 z"
       inkscape:connector-curvature="0" />
    <path
       id="path5098"
       d="m 1040,2516 v -356 h 144 c 79,0 168,5 197,10 122,23 218,100 261,209 17,44 22,77 22,157 1,93 -1,105 -29,159 -20,40 -46,71 -79,96 -81,61 -127,72 -333,77 l -183,4 z m 397,206 c 64,-34 95,-87 101,-175 11,-185 -76,-267 -285,-267 h -83 v 236 236 l 113,-4 c 91,-3 120,-8 154,-26 z"
       inkscape:connector-curvature="0" />
    <path
       id="path5100"
       d="m 1852,2654 c -50,-12 -62,-19 -58,-32 3,-9 8,-30 12,-45 5,-21 11,-27 23,-22 38,15 116,24 152,19 46,-8 79,-43 79,-84 v -28 l -89,-4 c -108,-5 -173,-33 -202,-88 -37,-68 -15,-152 50,-192 48,-30 168,-32 220,-4 31,16 35,17 43,2 6,-11 23,-16 58,-16 h 50 v 154 c 0,234 -16,289 -94,329 -51,27 -161,31 -244,11 z m 206,-331 -3,-57 -44,-13 c -51,-15 -115,-3 -125,23 -11,28 -6,61 9,74 8,7 41,16 73,20 101,13 93,17 90,-47 z"
       inkscape:connector-curvature="0" />
    <path
       id="path5102"
       d="m 2490,2656 c -19,-7 -43,-17 -52,-21 -12,-5 -20,-2 -24,9 -4,11 -19,16 -50,16 h -44 v -250 -250 h 60 60 v 190 c 0,183 1,190 21,201 22,11 112,8 155,-6 20,-6 23,-2 33,46 8,35 8,56 1,63 -16,16 -121,18 -160,2 z"
       inkscape:connector-curvature="0" />
  </g>
</svg>
